<svg xmlns="http://www.w3.org/2000/svg" xmlns:xlink="http://www.w3.org/1999/xlink" width="600" zoomAndPan="magnify" viewBox="0 0 450 149.999998" height="200" preserveAspectRatio="xMidYMid meet" version="1.0"><defs><g/><clipPath id="a81b6151dc"><path d="M 16 9 L 117 9 L 117 122 L 16 122 Z M 16 9 " clip-rule="nonzero"/></clipPath><clipPath id="68f51be85e"><path d="M 110.058594 76.492188 C 112.09375 77.65625 113.828125 79.417969 114.964844 81.703125 C 117.652344 87.097656 115.984375 93.75 111.058594 97.21875 C 104.960938 101.511719 96.609375 99.484375 93.113281 93.039062 C 89.980469 87.269531 91.996094 79.953125 97.636719 76.59375 C 97.738281 76.539062 97.835938 76.480469 97.933594 76.425781 C 100.269531 75.121094 101.691406 72.628906 101.691406 69.953125 L 101.691406 60.976562 C 101.691406 58.253906 100.179688 55.789062 97.816406 54.4375 C 97.769531 54.410156 97.726562 54.386719 97.683594 54.359375 C 95.359375 52.992188 92.480469 52.960938 90.144531 54.3125 L 82.371094 58.800781 C 80.042969 60.144531 78.617188 62.636719 78.644531 65.324219 C 78.691406 69.625 76.480469 73.824219 72.492188 76.128906 C 68.5 78.429688 63.757812 78.246094 60.058594 76.054688 C 57.746094 74.6875 54.871094 74.675781 52.542969 76.019531 L 44.769531 80.507812 C 42.433594 81.855469 41.019531 84.363281 41.042969 87.0625 C 41.042969 87.113281 41.042969 87.164062 41.042969 87.214844 C 41.035156 89.9375 42.410156 92.480469 44.769531 93.839844 L 52.542969 98.328125 C 54.890625 99.683594 57.769531 99.632812 60.109375 98.261719 C 60.132812 98.25 60.15625 98.234375 60.179688 98.222656 C 66.066406 94.820312 73.597656 96.839844 76.996094 102.726562 C 80.398438 108.617188 78.378906 116.144531 72.492188 119.546875 C 66.601562 122.945312 59.074219 120.925781 55.671875 115.039062 C 54.523438 113.046875 53.992188 110.863281 54.023438 108.71875 C 54.066406 106.039062 52.621094 103.554688 50.296875 102.214844 L 42.527344 97.730469 C 40.179688 96.375 37.296875 96.425781 34.960938 97.796875 C 34.9375 97.808594 34.914062 97.824219 34.890625 97.835938 C 28.75 101.382812 20.824219 99.035156 17.65625 92.550781 C 15.003906 87.109375 16.765625 80.453125 21.757812 77.03125 C 22.078125 76.8125 22.402344 76.609375 22.734375 76.425781 C 25.070312 75.121094 26.492188 72.628906 26.492188 69.953125 L 26.492188 60.980469 C 26.492188 58.253906 24.976562 55.789062 22.613281 54.4375 C 20.578125 53.273438 18.84375 51.511719 17.707031 49.226562 C 15.019531 43.832031 16.683594 37.183594 21.613281 33.714844 C 27.707031 29.417969 36.058594 31.445312 39.558594 37.890625 C 42.691406 43.660156 40.675781 50.976562 35.03125 54.335938 C 34.933594 54.394531 34.835938 54.453125 34.734375 54.507812 C 32.398438 55.8125 30.980469 58.304688 30.980469 60.980469 L 30.980469 69.953125 C 30.980469 72.679688 32.492188 75.140625 34.855469 76.496094 C 34.898438 76.519531 34.945312 76.542969 34.988281 76.570312 C 37.3125 77.9375 40.1875 77.96875 42.527344 76.621094 L 50.300781 72.132812 C 52.628906 70.789062 54.054688 68.292969 54.027344 65.605469 C 53.980469 61.304688 56.191406 57.109375 60.179688 54.804688 C 64.171875 52.5 68.910156 52.6875 72.613281 54.875 C 74.925781 56.246094 77.796875 56.257812 80.125 54.910156 L 87.902344 50.421875 C 90.238281 49.074219 91.648438 46.566406 91.628906 43.871094 C 91.625 43.820312 91.625 43.769531 91.625 43.71875 C 91.636719 40.992188 90.261719 38.453125 87.902344 37.089844 L 80.128906 32.601562 C 77.78125 31.246094 74.898438 31.300781 72.5625 32.667969 C 72.539062 32.683594 72.515625 32.695312 72.492188 32.710938 C 66.601562 36.109375 59.074219 34.09375 55.675781 28.203125 C 52.273438 22.316406 54.292969 14.785156 60.179688 11.386719 C 66.070312 7.988281 73.597656 10.003906 76.996094 15.894531 C 78.148438 17.886719 78.675781 20.066406 78.644531 22.210938 C 78.605469 24.890625 80.050781 27.375 82.371094 28.714844 L 90.144531 33.203125 C 92.492188 34.558594 95.371094 34.507812 97.710938 33.136719 C 97.734375 33.121094 97.757812 33.109375 97.78125 33.09375 C 103.921875 29.550781 111.851562 31.898438 115.015625 38.382812 C 117.667969 43.824219 115.90625 50.480469 110.914062 53.902344 C 110.59375 54.121094 110.269531 54.320312 109.9375 54.507812 C 107.601562 55.8125 106.179688 58.304688 106.179688 60.980469 L 106.179688 69.953125 C 106.179688 72.675781 107.691406 75.140625 110.058594 76.492188 Z M 110.058594 76.492188 " clip-rule="nonzero"/></clipPath><linearGradient x1="-19.687696" gradientTransform="matrix(0.222923, 0, 0, 0.222923, 16.426714, 9.734758)" y1="493.569707" x2="467.936457" gradientUnits="userSpaceOnUse" y2="5.945531" id="30e029e35e"><stop stop-opacity="1" stop-color="rgb(45.098877%, 24.699402%, 97.599792%)" offset="0"/><stop stop-opacity="1" stop-color="rgb(45.098877%, 24.699402%, 97.599792%)" offset="0.125"/><stop stop-opacity="1" stop-color="rgb(45.098877%, 24.699402%, 97.599792%)" offset="0.140625"/><stop stop-opacity="1" stop-color="rgb(45.159912%, 24.728394%, 97.52655%)" offset="0.148438"/><stop stop-opacity="1" stop-color="rgb(45.484924%, 24.884033%, 97.145081%)" offset="0.152344"/><stop stop-opacity="1" stop-color="rgb(45.747375%, 25.010681%, 96.838379%)" offset="0.15625"/><stop stop-opacity="1" stop-color="rgb(46.009827%, 25.137329%, 96.530151%)" offset="0.160156"/><stop stop-opacity="1" stop-color="rgb(46.272278%, 25.263977%, 96.22345%)" offset="0.164062"/><stop stop-opacity="1" stop-color="rgb(46.534729%, 25.389099%, 95.915222%)" offset="0.167969"/><stop stop-opacity="1" stop-color="rgb(46.79718%, 25.515747%, 95.606995%)" offset="0.171875"/><stop stop-opacity="1" stop-color="rgb(47.059631%, 25.640869%, 95.298767%)" offset="0.175781"/><stop stop-opacity="1" stop-color="rgb(47.322083%, 25.767517%, 94.992065%)" offset="0.179687"/><stop stop-opacity="1" stop-color="rgb(47.584534%, 25.894165%, 94.683838%)" offset="0.183594"/><stop stop-opacity="1" stop-color="rgb(47.846985%, 26.020813%, 94.377136%)" offset="0.1875"/><stop stop-opacity="1" stop-color="rgb(48.10791%, 26.145935%, 94.068909%)" offset="0.191406"/><stop stop-opacity="1" stop-color="rgb(48.370361%, 26.272583%, 93.762207%)" offset="0.195312"/><stop stop-opacity="1" stop-color="rgb(48.632812%, 26.399231%, 93.453979%)" offset="0.199219"/><stop stop-opacity="1" stop-color="rgb(48.895264%, 26.525879%, 93.145752%)" offset="0.203125"/><stop stop-opacity="1" stop-color="rgb(49.157715%, 26.651001%, 92.837524%)" offset="0.207031"/><stop stop-opacity="1" stop-color="rgb(49.420166%, 26.777649%, 92.530823%)" offset="0.210938"/><stop stop-opacity="1" stop-color="rgb(49.682617%, 26.902771%, 92.222595%)" offset="0.214844"/><stop stop-opacity="1" stop-color="rgb(49.945068%, 27.029419%, 91.915894%)" offset="0.21875"/><stop stop-opacity="1" stop-color="rgb(50.20752%, 27.156067%, 91.607666%)" offset="0.222656"/><stop stop-opacity="1" stop-color="rgb(50.469971%, 27.282715%, 91.299438%)" offset="0.226562"/><stop stop-opacity="1" stop-color="rgb(50.732422%, 27.407837%, 90.991211%)" offset="0.230469"/><stop stop-opacity="1" stop-color="rgb(50.994873%, 27.534485%, 90.684509%)" offset="0.234375"/><stop stop-opacity="1" stop-color="rgb(51.255798%, 27.661133%, 90.376282%)" offset="0.238281"/><stop stop-opacity="1" stop-color="rgb(51.51825%, 27.787781%, 90.06958%)" offset="0.242188"/><stop stop-opacity="1" stop-color="rgb(51.780701%, 27.912903%, 89.761353%)" offset="0.246094"/><stop stop-opacity="1" stop-color="rgb(52.043152%, 28.039551%, 89.453125%)" offset="0.25"/><stop stop-opacity="1" stop-color="rgb(52.305603%, 28.164673%, 89.144897%)" offset="0.253906"/><stop stop-opacity="1" stop-color="rgb(52.568054%, 28.291321%, 88.838196%)" offset="0.257812"/><stop stop-opacity="1" stop-color="rgb(52.830505%, 28.417969%, 88.529968%)" offset="0.261719"/><stop stop-opacity="1" stop-color="rgb(53.092957%, 28.544617%, 88.223267%)" offset="0.265625"/><stop stop-opacity="1" stop-color="rgb(53.355408%, 28.669739%, 87.915039%)" offset="0.269531"/><stop stop-opacity="1" stop-color="rgb(53.617859%, 28.796387%, 87.606812%)" offset="0.273438"/><stop stop-opacity="1" stop-color="rgb(53.88031%, 28.923035%, 87.298584%)" offset="0.277344"/><stop stop-opacity="1" stop-color="rgb(54.142761%, 29.049683%, 86.991882%)" offset="0.28125"/><stop stop-opacity="1" stop-color="rgb(54.403687%, 29.174805%, 86.683655%)" offset="0.285156"/><stop stop-opacity="1" stop-color="rgb(54.666138%, 29.301453%, 86.376953%)" offset="0.289062"/><stop stop-opacity="1" stop-color="rgb(54.928589%, 29.426575%, 86.068726%)" offset="0.292969"/><stop stop-opacity="1" stop-color="rgb(55.19104%, 29.553223%, 85.760498%)" offset="0.296875"/><stop stop-opacity="1" stop-color="rgb(55.453491%, 29.679871%, 85.452271%)" offset="0.300781"/><stop stop-opacity="1" stop-color="rgb(55.715942%, 29.806519%, 85.145569%)" offset="0.304688"/><stop stop-opacity="1" stop-color="rgb(55.978394%, 29.931641%, 84.837341%)" offset="0.308594"/><stop stop-opacity="1" stop-color="rgb(56.240845%, 30.058289%, 84.53064%)" offset="0.3125"/><stop stop-opacity="1" stop-color="rgb(56.503296%, 30.184937%, 84.222412%)" offset="0.316406"/><stop stop-opacity="1" stop-color="rgb(56.765747%, 30.311584%, 83.914185%)" offset="0.320312"/><stop stop-opacity="1" stop-color="rgb(57.028198%, 30.436707%, 83.605957%)" offset="0.324219"/><stop stop-opacity="1" stop-color="rgb(57.290649%, 30.563354%, 83.299255%)" offset="0.328125"/><stop stop-opacity="1" stop-color="rgb(57.553101%, 30.688477%, 82.991028%)" offset="0.332031"/><stop stop-opacity="1" stop-color="rgb(57.815552%, 30.815125%, 82.684326%)" offset="0.335937"/><stop stop-opacity="1" stop-color="rgb(58.076477%, 30.941772%, 82.376099%)" offset="0.339844"/><stop stop-opacity="1" stop-color="rgb(58.338928%, 31.06842%, 82.067871%)" offset="0.34375"/><stop stop-opacity="1" stop-color="rgb(58.601379%, 31.193542%, 81.759644%)" offset="0.347656"/><stop stop-opacity="1" stop-color="rgb(58.863831%, 31.32019%, 81.452942%)" offset="0.351562"/><stop stop-opacity="1" stop-color="rgb(59.126282%, 31.445312%, 81.144714%)" offset="0.355469"/><stop stop-opacity="1" stop-color="rgb(59.388733%, 31.57196%, 80.838013%)" offset="0.359375"/><stop stop-opacity="1" stop-color="rgb(59.651184%, 31.698608%, 80.529785%)" offset="0.363281"/><stop stop-opacity="1" stop-color="rgb(59.913635%, 31.825256%, 80.221558%)" offset="0.367187"/><stop stop-opacity="1" stop-color="rgb(60.176086%, 31.950378%, 79.91333%)" offset="0.371094"/><stop stop-opacity="1" stop-color="rgb(60.438538%, 32.077026%, 79.606628%)" offset="0.375"/><stop stop-opacity="1" stop-color="rgb(60.700989%, 32.203674%, 79.298401%)" offset="0.378906"/><stop stop-opacity="1" stop-color="rgb(60.96344%, 32.330322%, 78.991699%)" offset="0.382812"/><stop stop-opacity="1" stop-color="rgb(61.224365%, 32.455444%, 78.683472%)" offset="0.386719"/><stop stop-opacity="1" stop-color="rgb(61.486816%, 32.582092%, 78.375244%)" offset="0.390625"/><stop stop-opacity="1" stop-color="rgb(61.749268%, 32.707214%, 78.067017%)" offset="0.394531"/><stop stop-opacity="1" stop-color="rgb(62.011719%, 32.833862%, 77.760315%)" offset="0.398437"/><stop stop-opacity="1" stop-color="rgb(62.27417%, 32.96051%, 77.452087%)" offset="0.402344"/><stop stop-opacity="1" stop-color="rgb(62.536621%, 33.087158%, 77.145386%)" offset="0.40625"/><stop stop-opacity="1" stop-color="rgb(62.799072%, 33.21228%, 76.837158%)" offset="0.410156"/><stop stop-opacity="1" stop-color="rgb(63.061523%, 33.338928%, 76.530457%)" offset="0.414062"/><stop stop-opacity="1" stop-color="rgb(63.323975%, 33.465576%, 76.222229%)" offset="0.417969"/><stop stop-opacity="1" stop-color="rgb(63.586426%, 33.592224%, 75.914001%)" offset="0.421875"/><stop stop-opacity="1" stop-color="rgb(63.848877%, 33.717346%, 75.605774%)" offset="0.425781"/><stop stop-opacity="1" stop-color="rgb(64.111328%, 33.843994%, 75.299072%)" offset="0.429688"/><stop stop-opacity="1" stop-color="rgb(64.372253%, 33.969116%, 74.990845%)" offset="0.433594"/><stop stop-opacity="1" stop-color="rgb(64.634705%, 34.095764%, 74.684143%)" offset="0.4375"/><stop stop-opacity="1" stop-color="rgb(64.897156%, 34.222412%, 74.375916%)" offset="0.441406"/><stop stop-opacity="1" stop-color="rgb(65.159607%, 34.34906%, 74.067688%)" offset="0.445312"/><stop stop-opacity="1" stop-color="rgb(65.422058%, 34.474182%, 73.75946%)" offset="0.449219"/><stop stop-opacity="1" stop-color="rgb(65.684509%, 34.60083%, 73.452759%)" offset="0.453125"/><stop stop-opacity="1" stop-color="rgb(65.94696%, 34.727478%, 73.144531%)" offset="0.457031"/><stop stop-opacity="1" stop-color="rgb(66.209412%, 34.854126%, 72.83783%)" offset="0.460938"/><stop stop-opacity="1" stop-color="rgb(66.471863%, 34.979248%, 72.529602%)" offset="0.464844"/><stop stop-opacity="1" stop-color="rgb(66.734314%, 35.105896%, 72.221375%)" offset="0.46875"/><stop stop-opacity="1" stop-color="rgb(66.996765%, 35.231018%, 71.913147%)" offset="0.472656"/><stop stop-opacity="1" stop-color="rgb(67.259216%, 35.357666%, 71.606445%)" offset="0.476562"/><stop stop-opacity="1" stop-color="rgb(67.520142%, 35.484314%, 71.298218%)" offset="0.480469"/><stop stop-opacity="1" stop-color="rgb(67.782593%, 35.610962%, 70.991516%)" offset="0.484375"/><stop stop-opacity="1" stop-color="rgb(68.045044%, 35.736084%, 70.683289%)" offset="0.488281"/><stop stop-opacity="1" stop-color="rgb(68.307495%, 35.862732%, 70.375061%)" offset="0.492188"/><stop stop-opacity="1" stop-color="rgb(68.569946%, 35.98938%, 70.066833%)" offset="0.496094"/><stop stop-opacity="1" stop-color="rgb(68.832397%, 36.116028%, 69.760132%)" offset="0.5"/><stop stop-opacity="1" stop-color="rgb(69.094849%, 36.24115%, 69.451904%)" offset="0.503906"/><stop stop-opacity="1" stop-color="rgb(69.3573%, 36.367798%, 69.145203%)" offset="0.507812"/><stop stop-opacity="1" stop-color="rgb(69.619751%, 36.49292%, 68.836975%)" offset="0.511719"/><stop stop-opacity="1" stop-color="rgb(69.882202%, 36.619568%, 68.528748%)" offset="0.515625"/><stop stop-opacity="1" stop-color="rgb(70.144653%, 36.746216%, 68.22052%)" offset="0.519531"/><stop stop-opacity="1" stop-color="rgb(70.407104%, 36.872864%, 67.913818%)" offset="0.523438"/><stop stop-opacity="1" stop-color="rgb(70.669556%, 36.997986%, 67.605591%)" offset="0.527344"/><stop stop-opacity="1" stop-color="rgb(70.932007%, 37.124634%, 67.298889%)" offset="0.53125"/><stop stop-opacity="1" stop-color="rgb(71.192932%, 37.249756%, 66.990662%)" offset="0.535156"/><stop stop-opacity="1" stop-color="rgb(71.455383%, 37.376404%, 66.682434%)" offset="0.539062"/><stop stop-opacity="1" stop-color="rgb(71.717834%, 37.503052%, 66.374207%)" offset="0.542969"/><stop stop-opacity="1" stop-color="rgb(71.980286%, 37.6297%, 66.067505%)" offset="0.546875"/><stop stop-opacity="1" stop-color="rgb(72.242737%, 37.754822%, 65.759277%)" offset="0.550781"/><stop stop-opacity="1" stop-color="rgb(72.505188%, 37.88147%, 65.452576%)" offset="0.554688"/><stop stop-opacity="1" stop-color="rgb(72.767639%, 38.008118%, 65.144348%)" offset="0.558594"/><stop stop-opacity="1" stop-color="rgb(73.03009%, 38.134766%, 64.836121%)" offset="0.5625"/><stop stop-opacity="1" stop-color="rgb(73.292542%, 38.259888%, 64.527893%)" offset="0.566406"/><stop stop-opacity="1" stop-color="rgb(73.554993%, 38.386536%, 64.221191%)" offset="0.570312"/><stop stop-opacity="1" stop-color="rgb(73.817444%, 38.511658%, 63.912964%)" offset="0.574219"/><stop stop-opacity="1" stop-color="rgb(74.079895%, 38.638306%, 63.606262%)" offset="0.578125"/><stop stop-opacity="1" stop-color="rgb(74.34082%, 38.764954%, 63.298035%)" offset="0.582031"/><stop stop-opacity="1" stop-color="rgb(74.603271%, 38.891602%, 62.989807%)" offset="0.585938"/><stop stop-opacity="1" stop-color="rgb(74.865723%, 39.016724%, 62.68158%)" offset="0.589844"/><stop stop-opacity="1" stop-color="rgb(75.128174%, 39.143372%, 62.374878%)" offset="0.59375"/><stop stop-opacity="1" stop-color="rgb(75.390625%, 39.27002%, 62.06665%)" offset="0.597656"/><stop stop-opacity="1" stop-color="rgb(75.653076%, 39.396667%, 61.759949%)" offset="0.601562"/><stop stop-opacity="1" stop-color="rgb(75.915527%, 39.52179%, 61.451721%)" offset="0.605469"/><stop stop-opacity="1" stop-color="rgb(76.177979%, 39.648438%, 61.143494%)" offset="0.609375"/><stop stop-opacity="1" stop-color="rgb(76.44043%, 39.77356%, 60.835266%)" offset="0.613281"/><stop stop-opacity="1" stop-color="rgb(76.702881%, 39.900208%, 60.528564%)" offset="0.617188"/><stop stop-opacity="1" stop-color="rgb(76.965332%, 40.026855%, 60.220337%)" offset="0.621094"/><stop stop-opacity="1" stop-color="rgb(77.227783%, 40.153503%, 59.913635%)" offset="0.625"/><stop stop-opacity="1" stop-color="rgb(77.488708%, 40.278625%, 59.605408%)" offset="0.628906"/><stop stop-opacity="1" stop-color="rgb(77.75116%, 40.405273%, 59.29718%)" offset="0.632812"/><stop stop-opacity="1" stop-color="rgb(78.013611%, 40.531921%, 58.988953%)" offset="0.636719"/><stop stop-opacity="1" stop-color="rgb(78.276062%, 40.658569%, 58.682251%)" offset="0.640625"/><stop stop-opacity="1" stop-color="rgb(78.538513%, 40.783691%, 58.374023%)" offset="0.644531"/><stop stop-opacity="1" stop-color="rgb(78.800964%, 40.910339%, 58.067322%)" offset="0.648438"/><stop stop-opacity="1" stop-color="rgb(79.063416%, 41.035461%, 57.759094%)" offset="0.652344"/><stop stop-opacity="1" stop-color="rgb(79.325867%, 41.162109%, 57.452393%)" offset="0.65625"/><stop stop-opacity="1" stop-color="rgb(79.588318%, 41.288757%, 57.144165%)" offset="0.660156"/><stop stop-opacity="1" stop-color="rgb(79.850769%, 41.415405%, 56.835938%)" offset="0.664062"/><stop stop-opacity="1" stop-color="rgb(80.11322%, 41.540527%, 56.52771%)" offset="0.667969"/><stop stop-opacity="1" stop-color="rgb(80.375671%, 41.667175%, 56.221008%)" offset="0.671875"/><stop stop-opacity="1" stop-color="rgb(80.636597%, 41.793823%, 55.912781%)" offset="0.675781"/><stop stop-opacity="1" stop-color="rgb(80.899048%, 41.920471%, 55.606079%)" offset="0.679688"/><stop stop-opacity="1" stop-color="rgb(81.161499%, 42.045593%, 55.297852%)" offset="0.683594"/><stop stop-opacity="1" stop-color="rgb(81.42395%, 42.172241%, 54.989624%)" offset="0.6875"/><stop stop-opacity="1" stop-color="rgb(81.686401%, 42.297363%, 54.681396%)" offset="0.691406"/><stop stop-opacity="1" stop-color="rgb(81.948853%, 42.424011%, 54.374695%)" offset="0.695313"/><stop stop-opacity="1" stop-color="rgb(82.211304%, 42.550659%, 54.066467%)" offset="0.699219"/><stop stop-opacity="1" stop-color="rgb(82.473755%, 42.677307%, 53.759766%)" offset="0.703125"/><stop stop-opacity="1" stop-color="rgb(82.736206%, 42.802429%, 53.451538%)" offset="0.707031"/><stop stop-opacity="1" stop-color="rgb(82.998657%, 42.929077%, 53.143311%)" offset="0.710938"/><stop stop-opacity="1" stop-color="rgb(83.261108%, 43.054199%, 52.835083%)" offset="0.714844"/><stop stop-opacity="1" stop-color="rgb(83.52356%, 43.180847%, 52.528381%)" offset="0.71875"/><stop stop-opacity="1" stop-color="rgb(83.784485%, 43.307495%, 52.220154%)" offset="0.722656"/><stop stop-opacity="1" stop-color="rgb(84.046936%, 43.434143%, 51.913452%)" offset="0.726563"/><stop stop-opacity="1" stop-color="rgb(84.309387%, 43.559265%, 51.605225%)" offset="0.730469"/><stop stop-opacity="1" stop-color="rgb(84.571838%, 43.685913%, 51.296997%)" offset="0.734375"/><stop stop-opacity="1" stop-color="rgb(84.83429%, 43.812561%, 50.98877%)" offset="0.738281"/><stop stop-opacity="1" stop-color="rgb(85.096741%, 43.939209%, 50.682068%)" offset="0.742188"/><stop stop-opacity="1" stop-color="rgb(85.359192%, 44.064331%, 50.37384%)" offset="0.746094"/><stop stop-opacity="1" stop-color="rgb(85.621643%, 44.190979%, 50.067139%)" offset="0.75"/><stop stop-opacity="1" stop-color="rgb(85.884094%, 44.316101%, 49.758911%)" offset="0.753906"/><stop stop-opacity="1" stop-color="rgb(86.146545%, 44.442749%, 49.450684%)" offset="0.757812"/><stop stop-opacity="1" stop-color="rgb(86.408997%, 44.569397%, 49.142456%)" offset="0.761719"/><stop stop-opacity="1" stop-color="rgb(86.671448%, 44.696045%, 48.835754%)" offset="0.765625"/><stop stop-opacity="1" stop-color="rgb(86.933899%, 44.821167%, 48.527527%)" offset="0.769531"/><stop stop-opacity="1" stop-color="rgb(87.19635%, 44.947815%, 48.220825%)" offset="0.773437"/><stop stop-opacity="1" stop-color="rgb(87.457275%, 45.074463%, 47.912598%)" offset="0.777344"/><stop stop-opacity="1" stop-color="rgb(87.719727%, 45.201111%, 47.60437%)" offset="0.78125"/><stop stop-opacity="1" stop-color="rgb(87.982178%, 45.326233%, 47.296143%)" offset="0.785156"/><stop stop-opacity="1" stop-color="rgb(88.244629%, 45.452881%, 46.989441%)" offset="0.789062"/><stop stop-opacity="1" stop-color="rgb(88.50708%, 45.578003%, 46.681213%)" offset="0.792969"/><stop stop-opacity="1" stop-color="rgb(88.769531%, 45.704651%, 46.374512%)" offset="0.796875"/><stop stop-opacity="1" stop-color="rgb(89.031982%, 45.831299%, 46.066284%)" offset="0.800781"/><stop stop-opacity="1" stop-color="rgb(89.294434%, 45.957947%, 45.758057%)" offset="0.804687"/><stop stop-opacity="1" stop-color="rgb(89.556885%, 46.083069%, 45.449829%)" offset="0.808594"/><stop stop-opacity="1" stop-color="rgb(89.819336%, 46.209717%, 45.143127%)" offset="0.8125"/><stop stop-opacity="1" stop-color="rgb(90.081787%, 46.336365%, 44.8349%)" offset="0.816406"/><stop stop-opacity="1" stop-color="rgb(90.344238%, 46.463013%, 44.528198%)" offset="0.820312"/><stop stop-opacity="1" stop-color="rgb(90.605164%, 46.588135%, 44.219971%)" offset="0.824219"/><stop stop-opacity="1" stop-color="rgb(90.867615%, 46.714783%, 43.911743%)" offset="0.828125"/><stop stop-opacity="1" stop-color="rgb(91.130066%, 46.839905%, 43.603516%)" offset="0.832031"/><stop stop-opacity="1" stop-color="rgb(91.392517%, 46.966553%, 43.296814%)" offset="0.835938"/><stop stop-opacity="1" stop-color="rgb(91.654968%, 47.093201%, 42.988586%)" offset="0.839844"/><stop stop-opacity="1" stop-color="rgb(91.917419%, 47.219849%, 42.681885%)" offset="0.84375"/><stop stop-opacity="1" stop-color="rgb(92.179871%, 47.344971%, 42.373657%)" offset="0.847656"/><stop stop-opacity="1" stop-color="rgb(92.442322%, 47.471619%, 42.06543%)" offset="0.851562"/><stop stop-opacity="1" stop-color="rgb(92.469788%, 47.485352%, 42.03186%)" offset="0.859375"/><stop stop-opacity="1" stop-color="rgb(92.498779%, 47.499084%, 41.999817%)" offset="0.875"/><stop stop-opacity="1" stop-color="rgb(92.498779%, 47.499084%, 41.999817%)" offset="1"/></linearGradient></defs><g clip-path="url(#a81b6151dc)"><g clip-path="url(#68f51be85e)"><path fill="url(#30e029e35e)" d="M 15.003906 7.988281 L 15.003906 122.730469 L 117.667969 122.730469 L 117.667969 7.988281 Z M 15.003906 7.988281 " fill-rule="nonzero"/></g></g><g fill="#ffffff" fill-opacity="1"><g transform="translate(132.765081, 98.335551)"><g><path d="M 53.578125 -38.546875 L 53.578125 -65.8125 L 68.515625 -65.8125 L 68.515625 0 L 53.578125 0 L 53.578125 -25.484375 L 20.53125 -25.484375 L 20.53125 0 L 5.59375 0 L 5.59375 -65.8125 L 20.53125 -65.8125 L 20.53125 -38.546875 Z M 53.578125 -38.546875 "/></g></g></g><g fill="#ffffff" fill-opacity="1"><g transform="translate(206.878722, 98.335551)"><g><path d="M 23.0625 -51.8125 C 20.320312 -51.8125 18.171875 -52.445312 16.609375 -53.71875 C 15.054688 -55 14.28125 -56.847656 14.28125 -59.265625 C 14.28125 -61.640625 15.054688 -63.476562 16.609375 -64.78125 C 18.171875 -66.082031 20.320312 -66.734375 23.0625 -66.734375 C 25.789062 -66.734375 27.960938 -66.082031 29.578125 -64.78125 C 31.203125 -63.476562 32.015625 -61.640625 32.015625 -59.265625 C 32.015625 -56.847656 31.203125 -55 29.578125 -53.71875 C 27.960938 -52.445312 25.789062 -51.8125 23.0625 -51.8125 Z M 44.8125 0 L 3.734375 0 L 3.734375 -13.0625 L 17.078125 -13.0625 L 17.078125 -34.625 L 5.59375 -34.078125 L 5.59375 -47.140625 L 23.328125 -48.078125 C 25.941406 -48.203125 27.945312 -47.578125 29.34375 -46.203125 C 30.75 -44.835938 31.453125 -42.847656 31.453125 -40.234375 L 31.453125 -13.0625 L 44.8125 -13.0625 Z M 44.8125 0 "/></g></g></g><g fill="#ffffff" fill-opacity="1"><g transform="translate(253.549779, 98.335551)"><g><path d="M 30.25 -13.0625 L 40.984375 -47.140625 L 55.71875 -47.140625 L 40.515625 0 L 16.234375 0 L 0.9375 -47.140625 L 15.6875 -47.140625 L 26.515625 -13.0625 Z M 30.25 -13.0625 "/></g></g></g><g fill="#ffffff" fill-opacity="1"><g transform="translate(310.208449, 98.335551)"><g><path d="M 3.734375 -24.171875 C 3.734375 -29.148438 4.789062 -33.425781 6.90625 -37 C 9.019531 -40.582031 11.941406 -43.320312 15.671875 -45.21875 C 19.410156 -47.125 23.707031 -48.078125 28.5625 -48.078125 C 33.476562 -48.078125 37.800781 -47.15625 41.53125 -45.3125 C 45.269531 -43.476562 48.195312 -40.847656 50.3125 -37.421875 C 52.425781 -34.003906 53.484375 -29.898438 53.484375 -25.109375 L 53.484375 -20.4375 L 17.734375 -20.4375 C 17.734375 -17.757812 18.742188 -15.550781 20.765625 -13.8125 C 22.785156 -12.070312 25.914062 -11.203125 30.15625 -11.203125 C 32.769531 -11.203125 34.992188 -11.664062 36.828125 -12.59375 C 38.660156 -13.53125 39.796875 -14.867188 40.234375 -16.609375 L 55.171875 -16.609375 C 54.921875 -14.929688 54.25 -13.082031 53.15625 -11.0625 C 52.070312 -9.039062 50.5 -7.109375 48.4375 -5.265625 C 46.382812 -3.429688 43.847656 -1.9375 40.828125 -0.78125 C 37.816406 0.363281 34.257812 0.9375 30.15625 0.9375 C 24.113281 0.9375 19.144531 -0.226562 15.25 -2.5625 C 11.363281 -4.894531 8.472656 -7.972656 6.578125 -11.796875 C 4.679688 -15.628906 3.734375 -19.753906 3.734375 -24.171875 Z M 17.734375 -28.84375 L 39.484375 -28.84375 C 39.484375 -30.644531 38.703125 -32.273438 37.140625 -33.734375 C 35.585938 -35.203125 32.726562 -35.9375 28.5625 -35.9375 C 24.394531 -35.9375 21.546875 -35.203125 20.015625 -33.734375 C 18.492188 -32.273438 17.734375 -30.644531 17.734375 -28.84375 Z M 17.734375 -28.84375 "/></g></g></g><g fill="#ffffff" fill-opacity="1"><g transform="translate(369.107336, 98.335551)"><g><path d="M 19.046875 0 L 1.859375 0 L 24.078125 -31.078125 L 24.078125 -34.8125 L 1.859375 -65.8125 L 19.046875 -65.8125 L 36.78125 -40.609375 L 54.609375 -65.8125 L 71.78125 -65.8125 L 49.46875 -34.8125 L 49.46875 -31.078125 L 71.78125 0 L 54.609375 0 L 36.78125 -25.296875 Z M 19.046875 0 "/></g></g></g></svg>